<?xml version="1.0" encoding="UTF-8"?>
<svg id="Layer_2" data-name="Layer 2" xmlns="http://www.w3.org/2000/svg" viewBox="0 0 1251 328.17">
  <defs>
    <style>
      .cls-1 {
        fill: #dcd3cb;
        stroke-width: 0px;
      }
    </style>
  </defs>
  <g id="tipo_contornos" data-name="tipo contornos">
    <g>
      <path class="cls-1" d="M1033.53,168.27c0-26.01,9.31-48.15,27.93-66.39,18.62-18.25,41.3-27.37,68.06-27.37s49.69,9.19,68.43,27.56c18.49,18.37,27.74,40.94,27.74,67.69s-9.31,49.63-27.93,67.87c-18.74,18.12-41.74,27.19-68.98,27.19s-49.63-9.25-67.87-27.74c-18.25-18.25-27.37-41.18-27.37-68.8ZM1076.07,169.01c0,18,4.81,32.24,14.43,42.72,9.86,10.61,22.87,15.9,39.02,15.9s29.28-5.24,39.02-15.72c9.74-10.48,14.61-24.47,14.61-41.98s-4.87-31.5-14.61-41.98c-9.87-10.6-22.87-15.9-39.02-15.9s-28.79,5.3-38.65,15.9c-9.87,10.61-14.8,24.29-14.8,41.06Z"/>
      <g>
        <path class="cls-1" d="M200.6,28.05c0-7.39,2.69-13.78,8.08-19.16,5.38-5.38,11.84-8.08,19.35-8.08s14.15,2.7,19.54,8.08c5.38,5.26,8.08,11.71,8.08,19.35s-2.7,14.16-8.08,19.54c-5.26,5.39-11.71,8.08-19.35,8.08s-14.16-2.69-19.54-8.08c-5.39-5.38-8.08-11.96-8.08-19.73Z"/>
        <path class="cls-1" d="M482.73,79.5h41.61v16.64c8.01-8.38,18.02-21.77,43.28-21.64,20.34.11,36.43,8.88,48.27,26.63,13.07-17.75,30.76-26.63,53.08-26.63,40.56,0,60.85,24.6,60.85,73.79v111.33h-41.8v-91.92c0-23.28,1.2-55.67-27.56-55.67-31.78,0-32.92,31.61-32.92,54.56v93.02h-41.8v-91.92c0-41.01-9.25-55.67-27.74-55.67-19.54,0-33.66,8.41-33.66,54.56v93.02h-41.61V79.5Z"/>
        <path class="cls-1" d="M801.27,328.17h-41.61V79.5h41.61v19.6c16.4-16.4,35.01-24.6,55.85-24.6,24.78,0,45.19,9.13,61.22,27.37,16.27,18.12,24.41,41,24.41,68.61s-8.08,49.5-24.23,67.5c-16.03,17.88-36.25,26.82-60.66,26.82-21.08,0-39.95-8.44-56.59-25.34v88.7ZM900.21,170.67c0-17.26-4.69-31.32-14.06-42.17-9.5-10.97-21.45-16.46-35.88-16.46-15.29,0-27.68,5.3-37.17,15.9-9.5,10.61-14.24,24.54-14.24,41.8s4.74,30.82,14.24,41.8c9.37,10.73,21.7,16.09,36.99,16.09,14.43,0,26.32-5.42,35.69-16.27,9.62-10.85,14.43-24.41,14.43-40.69Z"/>
        <path class="cls-1" d="M1010.36,0v259.63h-43.12V0h43.12Z"/>
        <path class="cls-1" d="M250.12,79.44v248.4h-43.12V79.44h43.12Z"/>
      </g>
      <path class="cls-1" d="M156.55,102.06c-17.85-18.37-39.56-27.56-65.16-27.56s-47.08,9.13-64.8,27.37C8.86,120.12,0,142.26,0,168.27c0,27.62,8.69,50.55,26.06,68.8,17.37,18.49,38.92,27.74,64.63,27.74s47.84-9.06,65.68-27.19c8.13-8.37,14.36-17.68,18.76-27.89h-44.98c-.44.54-.85,1.1-1.32,1.63-9.37,10.85-21.27,16.27-35.69,16.27-15.29,0-27.62-5.36-36.99-16.09-6.2-7.16-10.33-15.61-12.49-25.3h138.08c.79-5.31,1.21-10.8,1.21-16.5,0-26.75-8.8-49.32-26.41-67.69ZM44.12,151.02c2.26-8.92,6.25-16.62,12.03-23.07,9.49-10.6,21.88-15.9,37.17-15.9,14.43,0,26.38,5.49,35.88,16.46,5.51,6.39,9.36,13.91,11.63,22.52H44.12Z"/>
      <path class="cls-1" d="M404.41,209.73c-.44.54-.85,1.1-1.32,1.63-9.37,10.85-21.27,16.27-35.69,16.27-15.29,0-27.62-5.36-36.99-16.09-6.2-7.16-10.33-15.61-12.49-25.3h138.08c.79-5.31,1.21-10.8,1.21-16.5,0-26.75-8.8-49.32-26.41-67.69-17.85-18.37-39.56-27.56-65.16-27.56s-47.08,9.13-64.8,27.37c-17.73,18.25-26.59,40.38-26.59,66.39,0,27.62,8.69,50.55,26.06,68.8,17.37,18.49,38.92,27.74,64.63,27.74s47.84-9.06,65.68-27.19c8.13-8.37,14.36-17.68,18.76-27.89h-44.98ZM330.41,127.95c9.49-10.6,21.88-15.9,37.17-15.9,14.43,0,26.38,5.49,35.88,16.46,5.51,6.39,9.36,13.91,11.63,22.52h-96.71c2.26-8.92,6.25-16.62,12.03-23.07Z"/>
      <path class="cls-1" d="M1251,93.49c0,4.71-1.64,8.71-4.93,12.02-3.29,3.3-7.27,4.95-11.93,4.95s-8.66-1.66-11.97-4.98c-3.29-3.3-4.93-7.31-4.93-12.04,0-2.61.53-5,1.6-7.15,1.08-2.29,2.59-4.23,4.51-5.82,3.15-2.6,6.68-3.9,10.6-3.9,2.6,0,4.95.49,7.06,1.48,2.99,1.31,5.4,3.38,7.23,6.22,1.84,2.85,2.76,5.92,2.76,9.21ZM1234.01,79.05c-3.85,0-7.15,1.42-9.91,4.26-2.77,2.85-4.15,6.24-4.15,10.16s1.38,7.43,4.15,10.29c2.75,2.84,6.1,4.26,10.03,4.26s7.22-1.41,9.99-4.24c2.76-2.84,4.13-6.27,4.13-10.29,0-2.15-.54-4.37-1.62-6.66-1.07-2.15-2.49-3.86-4.26-5.12-2.49-1.77-5.28-2.66-8.37-2.66ZM1235.78,95.13l6.34,8.16h-4.55l-5.8-7.74v7.74h-3.73v-19.52h3.9c2.73,0,4.71.48,5.97,1.45,1.39,1.12,2.09,2.59,2.09,4.41,0,1.22-.37,2.35-1.12,3.39-.74,1.01-1.69,1.69-2.85,2.02l-.25.08ZM1231.75,92.43h.63c2.67,0,4.01-.92,4.01-2.76,0-1.71-1.29-2.57-3.88-2.57h-.76v5.33Z"/>
    </g>
  </g>
</svg>