<?xml version="1.0" encoding="UTF-8"?>
<svg id="Layer_2" data-name="Layer 2" xmlns="http://www.w3.org/2000/svg" viewBox="0 0 328.17 1251">
  <defs>
    <style>
      .cls-1 {
        fill: #dcd3cb;
        stroke-width: 0px;
      }
    </style>
  </defs>
  <g id="tipo_contornos" data-name="tipo contornos">
    <g>
      <path class="cls-1" d="M168.27,217.47c-26.01,0-48.15-9.31-66.39-27.93-18.25-18.62-27.37-41.3-27.37-68.06s9.19-49.69,27.56-68.43c18.37-18.49,40.94-27.74,67.69-27.74s49.63,9.31,67.87,27.93c18.12,18.74,27.19,41.74,27.19,68.98s-9.25,49.63-27.74,67.87c-18.25,18.25-41.18,27.37-68.8,27.37ZM169.01,174.93c18,0,32.24-4.81,42.72-14.43,10.61-9.86,15.9-22.87,15.9-39.02s-5.24-29.28-15.72-39.02c-10.48-9.74-24.47-14.61-41.98-14.61s-31.5,4.87-41.98,14.61c-10.6,9.87-15.9,22.87-15.9,39.02s5.3,28.79,15.9,38.65c10.61,9.87,24.29,14.8,41.06,14.8Z"/>
      <g>
        <path class="cls-1" d="M28.05,1050.4c-7.39,0-13.78-2.69-19.16-8.08-5.38-5.38-8.08-11.84-8.08-19.35s2.7-14.15,8.08-19.54c5.26-5.38,11.71-8.08,19.35-8.08s14.16,2.7,19.54,8.08c5.39,5.26,8.08,11.71,8.08,19.35s-2.69,14.16-8.08,19.54c-5.38,5.39-11.96,8.08-19.73,8.08Z"/>
        <path class="cls-1" d="M79.5,768.27v-41.61h16.64c-8.38-8.01-21.77-18.02-21.64-43.28.11-20.34,8.88-36.43,26.63-48.27-17.75-13.07-26.63-30.76-26.63-53.08,0-40.56,24.6-60.85,73.79-60.85h111.33v41.8h-91.92c-23.28,0-55.67-1.2-55.67,27.56,0,31.78,31.61,32.92,54.56,32.92h93.02v41.8h-91.92c-41.01,0-55.67,9.25-55.67,27.74,0,19.54,8.41,33.66,54.56,33.66h93.02v41.61H79.5Z"/>
        <path class="cls-1" d="M328.17,449.73v41.61H79.5v-41.61h19.6c-16.4-16.4-24.6-35.01-24.6-55.85,0-24.78,9.13-45.19,27.37-61.22,18.12-16.27,41-24.41,68.61-24.41s49.5,8.08,67.5,24.23c17.88,16.03,26.82,36.25,26.82,60.66,0,21.08-8.44,39.95-25.34,56.59h88.7ZM170.67,350.79c-17.26,0-31.32,4.69-42.17,14.06-10.97,9.5-16.46,21.45-16.46,35.88,0,15.29,5.3,27.68,15.9,37.17,10.61,9.5,24.54,14.24,41.8,14.24s30.82-4.74,41.8-14.24c10.73-9.37,16.09-21.7,16.09-36.99,0-14.43-5.42-26.32-16.27-35.69-10.85-9.62-24.41-14.43-40.69-14.43Z"/>
        <path class="cls-1" d="M0,240.64h259.63v43.12H0v-43.12Z"/>
        <path class="cls-1" d="M79.44,1000.88h248.4v43.12H79.44v-43.12Z"/>
      </g>
      <path class="cls-1" d="M102.06,1094.45c-18.37,17.85-27.56,39.56-27.56,65.16s9.13,47.08,27.37,64.8c18.25,17.73,40.38,26.59,66.39,26.59,27.62,0,50.55-8.69,68.8-26.06,18.49-17.37,27.74-38.92,27.74-64.63s-9.06-47.84-27.19-65.68c-8.37-8.13-17.68-14.36-27.89-18.76v44.98c.54.44,1.1.85,1.63,1.32,10.85,9.37,16.27,21.27,16.27,35.69,0,15.29-5.36,27.62-16.09,36.99-7.16,6.2-15.61,10.33-25.3,12.49v-138.08c-5.31-.79-10.8-1.21-16.5-1.21-26.75,0-49.32,8.8-67.69,26.41ZM151.02,1206.88c-8.92-2.26-16.62-6.25-23.07-12.03-10.6-9.49-15.9-21.88-15.9-37.17,0-14.43,5.49-26.38,16.46-35.88,6.39-5.51,13.91-9.36,22.52-11.63v96.71Z"/>
      <path class="cls-1" d="M209.73,846.59c.54.44,1.1.85,1.63,1.32,10.85,9.37,16.27,21.27,16.27,35.69,0,15.29-5.36,27.62-16.09,36.99-7.16,6.2-15.61,10.33-25.3,12.49v-138.08c-5.31-.79-10.8-1.21-16.5-1.21-26.75,0-49.32,8.8-67.69,26.41-18.37,17.85-27.56,39.56-27.56,65.16s9.13,47.08,27.37,64.8c18.25,17.73,40.38,26.59,66.39,26.59,27.62,0,50.55-8.69,68.8-26.06,18.49-17.37,27.74-38.92,27.74-64.63s-9.06-47.84-27.19-65.68c-8.37-8.13-17.68-14.36-27.89-18.76v44.98ZM127.95,920.59c-10.6-9.49-15.9-21.88-15.9-37.17,0-14.43,5.49-26.38,16.46-35.88,6.39-5.51,13.91-9.36,22.52-11.63v96.71c-8.92-2.26-16.62-6.25-23.07-12.03Z"/>
      <path class="cls-1" d="M93.49,0c4.71,0,8.71,1.64,12.02,4.93,3.3,3.29,4.95,7.27,4.95,11.93s-1.66,8.66-4.98,11.97c-3.3,3.29-7.31,4.93-12.04,4.93-2.61,0-5-.53-7.15-1.6-2.29-1.08-4.23-2.59-5.82-4.51-2.6-3.15-3.9-6.68-3.9-10.6,0-2.6.49-4.95,1.48-7.06,1.31-2.99,3.38-5.4,6.22-7.23,2.85-1.84,5.92-2.76,9.21-2.76ZM79.05,16.99c0,3.85,1.42,7.15,4.26,9.91,2.85,2.77,6.24,4.15,10.16,4.15s7.43-1.38,10.29-4.15c2.84-2.75,4.26-6.1,4.26-10.03s-1.41-7.22-4.24-9.99c-2.84-2.76-6.27-4.13-10.29-4.13-2.15,0-4.37.54-6.66,1.62-2.15,1.07-3.86,2.49-5.12,4.26-1.77,2.49-2.66,5.28-2.66,8.37ZM95.13,15.22l8.16-6.34v4.55l-7.74,5.8h7.74v3.73h-19.52v-3.9c0-2.73.48-4.71,1.45-5.97,1.12-1.39,2.59-2.09,4.41-2.09,1.22,0,2.35.37,3.39,1.12,1.01.74,1.69,1.69,2.02,2.85l.08.25ZM92.43,19.25v-.63c0-2.67-.92-4.01-2.76-4.01-1.71,0-2.57,1.29-2.57,3.88v.76h5.33Z"/>
    </g>
  </g>
</svg>